<?xml version="1.0" encoding="UTF-8" standalone="no"?>
<!-- Created with Inkscape (http://www.inkscape.org/) -->

<svg
   width="175mm"
   height="175mm"
   viewBox="0 0 175 175"
   version="1.1"
   id="svg1"
   xml:space="preserve"
   inkscape:version="1.4.4 (dcaf3e7d9e, 2026-05-05)"
   sodipodi:docname="cscsca_with_shadow.svg"
   xmlns:inkscape="http://www.inkscape.org/namespaces/inkscape"
   xmlns:sodipodi="http://sodipodi.sourceforge.net/DTD/sodipodi-0.dtd"
   xmlns="http://www.w3.org/2000/svg"
   xmlns:svg="http://www.w3.org/2000/svg"><sodipodi:namedview
     id="namedview1"
     pagecolor="#505050"
     bordercolor="#eeeeee"
     borderopacity="1"
     inkscape:showpageshadow="0"
     inkscape:pageopacity="0"
     inkscape:pagecheckerboard="0"
     inkscape:deskcolor="#505050"
     inkscape:document-units="mm"
     inkscape:zoom="1.729619"
     inkscape:cx="330.70866"
     inkscape:cy="330.70866"
     inkscape:window-width="2560"
     inkscape:window-height="1355"
     inkscape:window-x="0"
     inkscape:window-y="0"
     inkscape:window-maximized="1"
     inkscape:current-layer="layer1" /><defs
     id="defs1"><rect
       x="267.689"
       y="116.21056"
       width="235.89009"
       height="89.615112"
       id="rect7" /><rect
       x="190.2153"
       y="67.066788"
       width="63.019657"
       height="34.111557"
       id="rect6" /><rect
       x="264.22003"
       y="123.14851"
       width="215.07626"
       height="75.73922"
       id="rect5" /><rect
       x="246.87517"
       y="107.53813"
       width="257.2821"
       height="91.927757"
       id="rect4" /></defs><g
     inkscape:groupmode="layer"
     id="layer2"
     inkscape:label="Layer 2"><path
       style="fill:#554400;stroke-width:0.264583"
       d="m 7,141.5 h 15 l 45,-50 -45,-50 H 7 l 45,50 z"
       id="path16"
       sodipodi:nodetypes="ccccccc" /><path
       style="fill:#554400;stroke-width:0.264583"
       d="m 37,141.5 h 15 l 45,-50 -45,-50 H 37 l 45,50 z"
       id="path17"
       sodipodi:nodetypes="ccccccc" /><path
       style="fill:#554400;stroke-width:0.264583"
       d="m 67,141.5 h 15 l 45,-50 45,-50 h -15 l -45,50 z"
       id="path18"
       sodipodi:nodetypes="ccccccc" /></g><g
     inkscape:label="Layer 1"
     inkscape:groupmode="layer"
     id="layer1"><path
       style="fill:#ffd42a;stroke-width:0.264583"
       d="m 5,137.5 h 15 l 45,-50 -45,-50 H 5 l 45,50 z"
       id="path9"
       sodipodi:nodetypes="ccccccc" /><path
       style="fill:#ffd42a;stroke-width:0.264583"
       d="m 35,137.5 h 15 l 45,-50 -45,-50 H 35 l 45,50 z"
       id="path10"
       sodipodi:nodetypes="ccccccc" /><path
       style="fill:#ffd42a;stroke-width:0.264583"
       d="m 65,137.5 h 15 l 45,-50 45,-50 h -15 l -45,50 z"
       id="path11"
       sodipodi:nodetypes="ccccccc" /></g></svg>
